<svg width="30" height="30" viewBox="0 0 30 30" fill="none" xmlns="http://www.w3.org/2000/svg">
<path d="M15 17.625C13.5938 17.625 12.375 16.5 12.375 15C12.375 13.5937 13.5 12.375 15 12.375C16.4062 12.375 17.625 13.5 17.625 15C17.625 16.4062 16.4062 17.625 15 17.625Z" fill="#333333"/>
<path fill-rule="evenodd" clip-rule="evenodd" d="M18.1875 8.625H11.8125C11.0625 8.71875 10.6875 8.8125 10.4062 8.90625C10.0313 9 9.75 9.1875 9.46875 9.46875C9.2462 9.6913 9.14105 9.91385 9.01396 10.1828C8.98046 10.2537 8.94535 10.3281 8.90625 10.4062C8.89175 10.4498 8.875 10.4955 8.85705 10.5445C8.75897 10.8125 8.625 11.1785 8.625 11.8125V18.1875C8.71875 18.9375 8.8125 19.3125 8.90625 19.5937C9 19.9687 9.1875 20.25 9.46875 20.5312C9.6913 20.7538 9.91385 20.8589 10.1829 20.986C10.2538 21.0196 10.328 21.0546 10.4062 21.0937C10.4498 21.1082 10.4955 21.125 10.5445 21.1429C10.8125 21.241 11.1785 21.375 11.8125 21.375H18.1875C18.9375 21.2812 19.3125 21.1875 19.5938 21.0937C19.9688 21 20.25 20.8125 20.5312 20.5312C20.7538 20.3087 20.8589 20.0861 20.986 19.8172C21.0196 19.7462 21.0546 19.672 21.0938 19.5937C21.1083 19.5502 21.125 19.5045 21.1429 19.4554C21.241 19.1875 21.375 18.8215 21.375 18.1875V11.8125C21.2812 11.0625 21.1875 10.6875 21.0938 10.4062C21 10.0312 20.8125 9.75 20.5312 9.46875C20.3087 9.2462 20.0861 9.14105 19.8172 9.01395C19.7463 8.98048 19.6719 8.94531 19.5938 8.90625C19.5502 8.89174 19.5045 8.875 19.4555 8.85705C19.1875 8.75897 18.8215 8.625 18.1875 8.625ZM15 10.9687C12.75 10.9687 10.9688 12.75 10.9688 15C10.9688 17.25 12.75 19.0312 15 19.0312C17.25 19.0312 19.0312 17.25 19.0312 15C19.0312 12.75 17.25 10.9687 15 10.9687ZM20.0625 10.875C20.0625 11.3928 19.6428 11.8125 19.125 11.8125C18.6072 11.8125 18.1875 11.3928 18.1875 10.875C18.1875 10.3572 18.6072 9.9375 19.125 9.9375C19.6428 9.9375 20.0625 10.3572 20.0625 10.875Z" fill="#333333"/>
<path fill-rule="evenodd" clip-rule="evenodd" d="M0 15C0 6.71573 6.71573 0 15 0C23.2843 0 30 6.71573 30 15C30 23.2843 23.2843 30 15 30C6.71573 30 0 23.2843 0 15ZM11.8125 7.21875H18.1875C19.0312 7.3125 19.5938 7.40625 20.0625 7.59375C20.625 7.875 21 8.0625 21.4688 8.53125C21.9375 9 22.2188 9.46875 22.4063 9.9375C22.5938 10.4062 22.7812 10.9687 22.7812 11.8125V18.1875C22.6875 19.0312 22.5938 19.5937 22.4063 20.0625C22.125 20.625 21.9375 21 21.4688 21.4687C21 21.9375 20.5312 22.2187 20.0625 22.4062C19.5938 22.5937 19.0312 22.7812 18.1875 22.7812H11.8125C10.9688 22.6875 10.4062 22.5937 9.9375 22.4062C9.375 22.125 9 21.9375 8.53125 21.4687C8.0625 21 7.78125 20.5312 7.59375 20.0625C7.40625 19.5937 7.21875 19.0312 7.21875 18.1875V11.8125C7.3125 10.9687 7.40625 10.4062 7.59375 9.9375C7.875 9.375 8.0625 9 8.53125 8.53125C9 8.0625 9.46875 7.78125 9.9375 7.59375C10.4062 7.40625 10.9688 7.21875 11.8125 7.21875Z" fill="#333333"/>
</svg>
