<svg width="30" height="30" viewBox="0 0 30 30" fill="none" xmlns="http://www.w3.org/2000/svg">
<path fill-rule="evenodd" clip-rule="evenodd" d="M15 30C6.71573 30 0 23.2843 0 15C0 6.71573 6.71573 0 15 0C23.2843 0 30 6.71573 30 15C30 23.2843 23.2843 30 15 30ZM15.6486 11.2569C14.3052 11.8157 11.6202 12.9722 7.59367 14.7265C6.93983 14.9865 6.59731 15.2409 6.56613 15.4896C6.51344 15.91 7.03982 16.0755 7.75663 16.3009C7.85413 16.3315 7.95516 16.3633 8.05873 16.397C8.76396 16.6262 9.71261 16.8944 10.2058 16.9051C10.6531 16.9147 11.1524 16.7303 11.7036 16.3518C15.4658 13.8123 17.4078 12.5287 17.5297 12.501C17.6157 12.4815 17.7349 12.4569 17.8157 12.5287C17.8964 12.6005 17.8885 12.7364 17.8799 12.7729C17.8278 12.9952 15.7615 14.9162 14.6922 15.9103C14.3589 16.2202 14.1224 16.44 14.0741 16.4902C13.9658 16.6027 13.8554 16.7091 13.7494 16.8113C13.0942 17.4429 12.6029 17.9166 13.7766 18.69C14.3406 19.0617 14.792 19.3691 15.2422 19.6757C15.734 20.0106 16.2244 20.3446 16.859 20.7605C17.0207 20.8665 17.1751 20.9766 17.3255 21.0838C17.8977 21.4918 18.4119 21.8583 19.047 21.7999C19.4161 21.7659 19.7974 21.4189 19.991 20.3838C20.4486 17.9376 21.348 12.6376 21.5558 10.4536C21.574 10.2622 21.5511 10.0173 21.5327 9.90982C21.5143 9.80232 21.4759 9.64915 21.3362 9.53577C21.1707 9.40149 20.9152 9.37317 20.8009 9.37509C20.2814 9.38434 19.4844 9.66148 15.6486 11.2569Z" fill="#333333"/>
</svg>
