<svg width="22" height="22" viewBox="0 0 22 22" fill="none" xmlns="http://www.w3.org/2000/svg">
<path d="M21.8657 21.2176L15.1718 14.5237C16.5622 12.9799 17.4167 10.9445 17.4167 8.7083C17.4167 3.90659 13.5101 0 8.70835 0C3.90659 0 0 3.90659 0 8.70835C0 13.5101 3.90659 17.4167 8.70835 17.4167C10.9446 17.4167 12.9799 16.5622 14.5237 15.1718L21.2176 21.8657C21.2601 21.9083 21.3106 21.9422 21.3663 21.9652C21.4219 21.9882 21.4815 22.0001 21.5417 22C21.659 22 21.7762 21.9552 21.8658 21.8657C22.0448 21.6867 22.0448 21.3966 21.8657 21.2176ZM8.70835 16.5C4.41238 16.5 0.916695 13.0048 0.916695 8.70835C0.916695 4.41195 4.41238 0.916652 8.70835 0.916652C13.0043 0.916652 16.5 4.4119 16.5 8.70835C16.5 13.0048 13.0043 16.5 8.70835 16.5Z" fill="#B2B2B2"/>
</svg>
