<svg width="30" height="30" viewBox="0 0 30 30" fill="none" xmlns="http://www.w3.org/2000/svg">
<path d="M28.8122 6.61942L15.191 0.0436802C15.1314 0.014931 15.0661 0 15 0C14.9338 0 14.8685 0.014931 14.8089 0.0436802L1.18771 6.61942C1.11329 6.65536 1.0505 6.71155 1.00657 6.78155C0.962635 6.85155 0.939331 6.93252 0.939331 7.01516V22.9848C0.939331 23.0675 0.962635 23.1484 1.00657 23.2184C1.0505 23.2885 1.11329 23.3446 1.18771 23.3806L14.8089 29.9563C14.8685 29.9851 14.9338 30 15 30C15.0661 30 15.1314 29.9851 15.191 29.9563L28.8122 23.3806C28.8866 23.3446 28.9494 23.2885 28.9933 23.2184C29.0373 23.1484 29.0606 23.0675 29.0606 22.9848V7.01522C29.0606 6.93257 29.0373 6.85159 28.9933 6.78159C28.9494 6.71158 28.8866 6.65537 28.8122 6.61942ZM15 0.92745L27.6103 7.01516L23.9548 8.77989C23.9317 8.7618 23.9067 8.74609 23.8804 8.73302L11.3557 2.68673L15 0.92745ZM10.3633 3.1836L22.9553 9.26247L20.3763 10.5075L7.78947 4.43112L10.3633 3.1836ZM23.2499 10.0961V14.6984L20.8409 15.8614V11.2591L23.2499 10.0961ZM28.1817 22.7091L15.4394 28.8604V13.8667L18.4788 12.3994C18.5308 12.3743 18.5773 12.3392 18.6157 12.2962C18.6542 12.2531 18.6837 12.2029 18.7027 12.1484C18.7217 12.0939 18.7298 12.0362 18.7265 11.9786C18.7232 11.921 18.7086 11.8646 18.6835 11.8126C18.6584 11.7606 18.6233 11.7141 18.5803 11.6757C18.5372 11.6373 18.487 11.6077 18.4325 11.5887C18.378 11.5697 18.3203 11.5616 18.2627 11.5649C18.2051 11.5682 18.1487 11.5828 18.0967 11.6079L15 13.1029L13.7814 12.5147C13.7295 12.4895 13.6731 12.4749 13.6154 12.4716C13.5578 12.4683 13.5001 12.4764 13.4456 12.4954C13.3911 12.5144 13.3409 12.544 13.2978 12.5824C13.2548 12.6208 13.2197 12.6673 13.1946 12.7193C13.1695 12.7713 13.1549 12.8277 13.1516 12.8853C13.1483 12.9429 13.1564 13.0006 13.1754 13.0551C13.1944 13.1096 13.224 13.1598 13.2624 13.2029C13.3008 13.246 13.3473 13.281 13.3993 13.3061L14.5605 13.8667V28.8604L1.81824 22.709V7.7153L11.5214 12.3996C11.5808 12.4284 11.646 12.4434 11.7121 12.4434C11.8117 12.4435 11.9083 12.4098 11.9863 12.3478C12.0642 12.2858 12.1187 12.1992 12.141 12.1021C12.1632 12.005 12.1518 11.9033 12.1087 11.8135C12.0655 11.7238 11.9932 11.6513 11.9035 11.6081L2.38959 7.01516L6.75511 4.90766L19.9559 11.2805C19.9579 11.2832 19.96 11.2856 19.962 11.2882V16.5616C19.9621 16.636 19.981 16.7091 20.017 16.7742C20.053 16.8393 20.1049 16.8942 20.1679 16.9337C20.2309 16.9733 20.3029 16.9962 20.3772 17.0003C20.4515 17.0044 20.5256 16.9897 20.5926 16.9574L23.8804 15.3701C23.9549 15.3342 24.0176 15.278 24.0616 15.208C24.1055 15.138 24.1288 15.057 24.1288 14.9744V9.67192L28.1817 7.71536V22.7091Z" fill="#333333"/>
</svg>
