<svg width="27" height="27" viewBox="0 0 27 27" fill="none" xmlns="http://www.w3.org/2000/svg">
<g clip-path="url(#clip0_114_130)">
<path d="M13.5 0.84375C10.9968 0.84375 8.54988 1.58603 6.46857 2.97671C4.38726 4.3674 2.76508 6.34404 1.80716 8.65666C0.849234 10.9693 0.598598 13.514 1.08694 15.9691C1.57529 18.4242 2.78068 20.6793 4.55069 22.4493C6.32069 24.2193 8.57582 25.4247 11.0309 25.9131C13.486 26.4014 16.0307 26.1508 18.3433 25.1929C20.656 24.2349 22.6326 22.6127 24.0233 20.5314C25.414 18.4501 26.1563 16.0032 26.1563 13.5C26.1563 10.1434 24.8228 6.92419 22.4493 4.55068C20.0758 2.17717 16.8567 0.84375 13.5 0.84375ZM13.5 25.3125C11.1637 25.3125 8.87989 24.6197 6.93733 23.3217C4.99478 22.0238 3.48074 20.1789 2.58668 18.0204C1.69262 15.862 1.45869 13.4869 1.91448 11.1955C2.37027 8.9041 3.4953 6.79931 5.14731 5.1473C6.79931 3.49529 8.9041 2.37026 11.1955 1.91447C13.4869 1.45869 15.862 1.69261 18.0205 2.58667C20.1789 3.48073 22.0238 4.99477 23.3217 6.93733C24.6197 8.87988 25.3125 11.1637 25.3125 13.5C25.3125 16.6329 24.068 19.6374 21.8527 21.8527C19.6374 24.068 16.6329 25.3125 13.5 25.3125Z" fill="#969696"/>
<path d="M13.9219 16.4617V13.8798C14.7737 13.7725 15.5525 13.3446 16.0999 12.6832C16.6473 12.0218 16.9221 11.1767 16.8684 10.3199C16.8146 9.46306 16.4363 8.65892 15.8106 8.07117C15.1848 7.48343 14.3585 7.15625 13.5 7.15625C12.6415 7.15625 11.8152 7.48343 11.1894 8.07117C10.5637 8.65892 10.1854 9.46306 10.1316 10.3199C10.0779 11.1767 10.3527 12.0218 10.9001 12.6832C11.4475 13.3446 12.2263 13.7725 13.0781 13.8798V16.4617C10.9688 16.5207 8.85938 17.0523 8.85938 18.1492C8.85938 19.246 11.2641 19.8367 13.5 19.8367C15.7359 19.8367 18.1406 19.3051 18.1406 18.1492C18.1406 16.9932 16.0312 16.5207 13.9219 16.4617ZM10.9688 10.5554C10.9688 10.0548 11.1172 9.56538 11.3953 9.14912C11.6735 8.73286 12.0688 8.40842 12.5313 8.21683C12.9939 8.02525 13.5028 7.97512 13.9938 8.07279C14.4848 8.17046 14.9359 8.41154 15.2899 8.76554C15.6439 9.11954 15.8849 9.57057 15.9826 10.0616C16.0803 10.5526 16.0302 11.0615 15.8386 11.5241C15.647 11.9866 15.3225 12.3819 14.9063 12.6601C14.49 12.9382 14.0006 13.0867 13.5 13.0867C13.1669 13.0867 12.837 13.0209 12.5294 12.8932C12.2217 12.7654 11.9423 12.5782 11.7071 12.3423C11.472 12.1063 11.2857 11.8263 11.159 11.5182C11.0323 11.2101 10.9676 10.8801 10.9688 10.547V10.5554ZM13.5 18.9929C11.0278 18.9929 9.77062 18.377 9.70312 18.1492C9.76219 17.9298 10.8928 17.3729 13.0781 17.3054V18.1492C13.0781 18.261 13.1226 18.3683 13.2017 18.4475C13.2808 18.5266 13.3881 18.571 13.5 18.571C13.6119 18.571 13.7192 18.5266 13.7983 18.4475C13.8774 18.3683 13.9219 18.261 13.9219 18.1492V17.3054C16.0819 17.3645 17.2125 17.9045 17.2969 18.1492C17.2125 18.377 15.9469 18.9845 13.5 18.9845V18.9929Z" fill="#969696"/>
</g>
<defs>
<clipPath id="clip0_114_130">
<rect width="27" height="27" fill="white"/>
</clipPath>
</defs>
</svg>
