<svg width="37" height="33" viewBox="0 0 37 33" fill="none" xmlns="http://www.w3.org/2000/svg">
<g clip-path="url(#clip0_114_98)">
<path fill-rule="evenodd" clip-rule="evenodd" d="M0 18L18 0H32V14L14 32L0 18ZM18 1H31V14L14 31L1 18L18 1ZM25 4C26.7 4 28 5.3 28 7C28 8.7 26.7 10 25 10C23.3 10 22 8.7 22 7C22 5.3 23.3 4 25 4ZM25 5C26.1 5 27 5.9 27 7C27 8.1 26.1 9 25 9C23.9 9 23 8.1 23 7C23 5.9 23.9 5 25 5ZM14 21L9.8 23L10.8 18.6L8 15.5L12 15L14 11L16 15L20 15.5L17.2 18.6L18.2 23L14 21ZM14 19.9L11.2 21.3L11.8 18.3L10 16.2L12.7 15.9L14 13.2L15.3 15.9L18 16.2L16.1 18.3L16.8 21.3L14 19.9Z" fill="#969696"/>
<path fill-rule="evenodd" clip-rule="evenodd" d="M19 33L17 31H18L19 32L36 15V2H33V1H37V15L19 33Z" fill="#969696"/>
<path fill-rule="evenodd" clip-rule="evenodd" d="M14 32L0 18L18 0H32V14L14 32ZM31 1H18L1 18L14 31L31 14V1ZM10.8 18.6L8 15.5L12 15L14 11L16 15L20 15.5L17.2 18.6L18.2 23L14 21L9.8 23L10.8 18.6ZM14 19.9L16.8 21.3L16.1 18.3L18 16.2L15.3 15.9L14 13.2L12.7 15.9L10 16.2L11.9 18.3L11.3 21.3L14 19.9ZM25 4C26.7 4 28 5.3 28 7C28 8.7 26.7 10 25 10C23.3 10 22 8.7 22 7C22 5.3 23.3 4 25 4ZM25 9C26.1 9 27 8.1 27 7C27 5.9 26.1 5 25 5C23.9 5 23 5.9 23 7C23 8.1 23.9 9 25 9Z" fill="#969696"/>
</g>
<defs>
<clipPath id="clip0_114_98">
<rect width="37" height="33" fill="white"/>
</clipPath>
</defs>
</svg>
