<svg width="30" height="30" fill="none" xmlns="http://www.w3.org/2000/svg"><path fill-rule="evenodd" clip-rule="evenodd" d="M15 30C6.716 30 0 23.284 0 15 0 6.716 6.716 0 15 0c8.284 0 15 6.716 15 15 0 8.284-6.716 15-15 15Zm.649-18.743c-1.344.559-4.029 1.715-8.055 3.47-.654.26-.997.514-1.028.763-.053.42.474.586 1.19.81l.303.097c.705.23 1.654.497 2.147.508.447.01.946-.175 1.498-.553 3.762-2.54 5.704-3.823 5.826-3.851.086-.02.205-.044.286.028.08.072.073.207.064.244-.052.222-2.118 2.143-3.188 3.137-.333.31-.57.53-.618.58-.108.113-.219.22-.325.321-.655.632-1.146 1.106.028 1.879.564.372 1.015.68 1.465.986.492.335.982.669 1.617 1.085.162.105.316.216.466.323.573.408 1.087.774 1.722.716.37-.034.75-.381.944-1.416.458-2.446 1.357-7.746 1.565-9.93a2.437 2.437 0 0 0-.023-.544.582.582 0 0 0-.197-.374c-.165-.135-.42-.163-.535-.16-.52.008-1.317.285-5.152 1.88Z" fill="#333"/></svg>