<svg width="30" height="30" fill="none" xmlns="http://www.w3.org/2000/svg"><path d="M28.812 6.62 15.191.043a.44.44 0 0 0-.382 0L1.188 6.619a.44.44 0 0 0-.249.396v15.97a.44.44 0 0 0 .249.396l13.62 6.575a.44.44 0 0 0 .383 0l13.621-6.575a.44.44 0 0 0 .249-.396V7.015a.439.439 0 0 0-.249-.396ZM15 .926l12.61 6.088-3.655 1.765a.434.434 0 0 0-.075-.047L11.356 2.687 15 .927Zm-4.637 2.257 12.592 6.078-2.579 1.245L7.79 4.432l2.574-1.247Zm12.887 6.912v4.602l-2.41 1.163v-4.6l2.41-1.163Zm4.932 12.613L15.439 28.86V13.867l3.04-1.468a.44.44 0 0 0-.382-.791L15 13.103l-1.219-.588a.437.437 0 0 0-.586.204.44.44 0 0 0 .204.587l1.162.56V28.86L1.817 22.71V7.715L11.52 12.4a.437.437 0 0 0 .465-.052.44.44 0 0 0-.083-.74L2.39 7.015l4.365-2.107 13.2 6.372.007.008v5.274a.44.44 0 0 0 .63.395l3.288-1.587a.44.44 0 0 0 .249-.396V9.672l4.053-1.957V22.71Z" fill="#333"/></svg>