<svg width="26" height="30" fill="none" xmlns="http://www.w3.org/2000/svg"><path d="M13.013 0a5.13 5.13 0 0 0-5.129 4.688H6.251c-1.487 0-2.576 1.152-2.803 2.716L.594 27.149c-.225 1.554 1.222 2.853 2.806 2.853h19.205c1.595 0 3.026-1.3 2.803-2.853L22.556 7.404c-.218-1.508-1.274-2.716-2.803-2.716H18.14A5.13 5.13 0 0 0 13.01 0h.002Zm0 .937c2.194 0 3.987 1.643 4.192 3.75H8.821a4.181 4.181 0 0 1 4.192-3.75Zm-6.762 4.69h13.502c1.121 0 1.74.96 1.876 1.91l2.852 19.747c.142.982-.873 1.779-1.878 1.779H3.398c-1 0-2.016-.792-1.874-1.779L4.378 7.537c.149-1.042.813-1.91 1.873-1.91Zm10.975 3.747c0 2.301-1.878 4.163-4.213 4.163S8.8 11.675 8.8 9.372c0-.623-.937-.627-.937 0 0 2.814 2.314 5.101 5.15 5.101 2.835 0 5.149-2.287 5.149-5.103 0-.621-.936-.621-.936 0v.004Z" fill="#333"/></svg>