<svg width="37" height="33" fill="none" xmlns="http://www.w3.org/2000/svg"><g clip-path="url(#a)" fill-rule="evenodd" clip-rule="evenodd" fill="#969696"><path d="M0 18 18 0h14v14L14 32 0 18ZM18 1h13v13L14 31 1 18 18 1Zm7 3c1.7 0 3 1.3 3 3s-1.3 3-3 3-3-1.3-3-3 1.3-3 3-3Zm0 1c1.1 0 2 .9 2 2s-.9 2-2 2-2-.9-2-2 .9-2 2-2ZM14 21l-4.2 2 1-4.4L8 15.5l4-.5 2-4 2 4 4 .5-2.8 3.1 1 4.4-4.2-2Zm0-1.1-2.8 1.4.6-3-1.8-2.1 2.7-.3 1.3-2.7 1.3 2.7 2.7.3-1.9 2.1.7 3-2.8-1.4Z"/><path d="m19 33-2-2h1l1 1 17-17V2h-3V1h4v14L19 33Z"/><path d="M14 32 0 18 18 0h14v14L14 32ZM31 1H18L1 18l13 13 17-17V1ZM10.8 18.6 8 15.5l4-.5 2-4 2 4 4 .5-2.8 3.1 1 4.4-4.2-2-4.2 2 1-4.4Zm3.2 1.3 2.8 1.4-.7-3 1.9-2.1-2.7-.3-1.3-2.7-1.3 2.7-2.7.3 1.9 2.1-.6 3 2.7-1.4ZM25 4c1.7 0 3 1.3 3 3s-1.3 3-3 3-3-1.3-3-3 1.3-3 3-3Zm0 5c1.1 0 2-.9 2-2s-.9-2-2-2-2 .9-2 2 .9 2 2 2Z"/></g><defs><clipPath id="a"><path fill="#fff" d="M0 0h37v33H0z"/></clipPath></defs></svg>