<svg width="53" height="28" fill="none" xmlns="http://www.w3.org/2000/svg"><g clip-path="url(#a)"><path fill-rule="evenodd" clip-rule="evenodd" d="M53 21.5V24l-2 2h-3v-2c0-.7 0-5-5-5s-5 4-5 4H21s-.5-4-5-4c-4.6 0-5 4-5 4H5v-5l1-1L8 0h25v3h5l3 1.5 5 5.9 7 3.9-1 6.7 1 .5ZM45 11l-5-6-2-1h-6V1H9L7 17v1l-1 1v3h4s1-4 6-4 6 4 6 4h15s.6-4 6-4c7 0 6 7 6 7h2l1-1v-2l-1-1 .8-6.2L45 11Zm-14 3v-1l1-7h6l1.4 1 4.1 5-.5 2H31Zm8-6-1.3-1H33l-1 6h10.2l.1-1L39 8ZM0 0h6v1H0V0Zm5 6H0V5h5v1Zm-1 5H0v-1h4v1Zm-1 5H0v-1h3v1Zm8 9H6v-1h5v1Zm5-5c2.2 0 4 1.8 4 4s-1.8 4-4 4-4-1.8-4-4 1.8-4 4-4Zm0 7c1.7 0 3-1.3 3-3s-1.3-3-3-3-3 1.3-3 3 1.3 3 3 3Zm22-2H21v-1h17v1Zm5-5c2.2 0 4 1.8 4 4s-1.8 4-4 4-4-1.8-4-4 1.8-4 4-4Zm0 7c1.7 0 3-1.3 3-3s-1.3-3-3-3-3 1.3-3 3 1.3 3 3 3Z" fill="#969696"/></g><defs><clipPath id="a"><path fill="#fff" d="M0 0h53v28H0z"/></clipPath></defs></svg>