<svg width="26" height="30" viewBox="0 0 26 30" fill="none" xmlns="http://www.w3.org/2000/svg">
<path d="M13.0133 2.94678e-05C11.7262 -0.00433028 10.4845 0.475221 9.53441 1.34357C8.58435 2.21191 7.99535 3.40562 7.88425 4.68792H6.25075C4.76431 4.68792 3.67472 5.83951 3.44794 7.40392L0.59375 27.1494C0.368746 28.7032 1.81622 30.0018 3.40011 30.0018H22.6052C24.1997 30.0018 25.6313 28.7014 25.408 27.1494L22.5556 7.40392C22.3377 5.89621 21.2818 4.68792 19.7528 4.68792H18.1406C18.0295 3.40562 17.4405 2.21191 16.4904 1.34357C15.5403 0.475221 14.2986 -0.00433028 13.0115 2.94678e-05H13.0133ZM13.0133 0.937253C15.2066 0.937253 16.9996 2.57961 17.2051 4.68792H8.82147C8.92894 3.65369 9.41791 2.69662 10.193 2.00347C10.968 1.31031 11.9735 0.92904 13.0133 0.937253ZM6.25075 5.62691H19.7528C20.8743 5.62691 21.4926 6.58717 21.629 7.53679L24.4814 27.284C24.6232 28.2655 23.608 29.0628 22.6034 29.0628H3.39833C2.39733 29.0628 1.38215 28.2709 1.52389 27.284L4.37808 7.53679C4.5269 6.49504 5.19128 5.62691 6.25075 5.62691ZM17.2264 9.37403C17.2264 11.6755 15.3484 13.5375 13.0133 13.5375C10.6782 13.5375 8.80021 11.6755 8.80021 9.37226C8.80021 8.74863 7.86299 8.74508 7.86299 9.37226C7.86299 12.1857 10.1768 14.473 13.0133 14.473C15.848 14.473 18.1618 12.1857 18.1618 9.37049C18.1618 8.74863 17.2264 8.74863 17.2264 9.37049V9.37403Z" fill="#333333"/>
</svg>
