<svg width="51" height="31" viewBox="0 0 51 31" fill="none" xmlns="http://www.w3.org/2000/svg">
<g clip-path="url(#clip0_114_111)">
<path fill-rule="evenodd" clip-rule="evenodd" d="M25 10V6C25 6 28 6.3 28 3.4C28 2.1 26.9 1 25.5 1C23 1 23 4 23 4H22C22 4 22 0 25.5 0C29 0 29 3.4 29 3.4C29 7 26 7 26 7V10H25ZM34 28H31V21H34L35 23V27L34 28ZM34 23L33.5 22H32V27H34V23ZM26 21H27V27H29V26H30V28H26V21ZM21 21H25V28H21V21ZM22 27H24V22H22V27ZM16 26H17V27H19V25H16V21H20V23H19V22H17V24H20V28H16V26Z" fill="#969696"/>
<path fill-rule="evenodd" clip-rule="evenodd" d="M11 31V18H40V31H11ZM39 19H12V30H39V19ZM41 23V22H43L44 23H41ZM8 22H10V23H7L8 22Z" fill="#969696"/>
<path fill-rule="evenodd" clip-rule="evenodd" d="M49.5 24H46.7C46.7 24 42.8 19.6 39 17C35.4 14.6 30 13 30 13H21C21 13 15.6 14.6 12 17C8.2 19.6 4.2 24 4.2 24H1.5C1 24 0 23 0 22.5V21.5C0 20.7 0.8 20 1.5 20H4C4 20 6.2 17.6 8 16C9.5 14.6 11.4 13.2 13 12C17 9 21 9 21 9H30C30 9 34 9 38 12C39.5 13.1 41.8 14.8 43 16L47 20H49.5C50.2 20 51 20.7 51 21.5V22.5C51 23.2 50.2 24 49.5 24ZM50 21H46.7C46.7 21 44.6 18.9 43 17.2C41.8 16 38.9 14.1 37.5 13C34.2 10.4 30 10 30 10H21C21 10 16.7 10.4 13.5 13C12.1 14.1 9.4 16.1 8 17.2C6.6748 18.4068 5.40675 19.6748 4.2 21H1V23H4C4 23 8.3 18.5 12 16C15.8 13.5 21 12 21 12H30C30 12 35.6 13.7 39 16C43.1 18.7 47 23 47 23H50V21Z" fill="#969696"/>
</g>
<defs>
<clipPath id="clip0_114_111">
<rect width="51" height="31" fill="white"/>
</clipPath>
</defs>
</svg>
