<svg width="53" height="28" viewBox="0 0 53 28" fill="none" xmlns="http://www.w3.org/2000/svg">
<g clip-path="url(#clip0_114_106)">
<path fill-rule="evenodd" clip-rule="evenodd" d="M53 21.5V24L51 26H48V24C48 23.3 48 19 43 19C38 19 38 23 38 23H21C21 23 20.5 19 16 19C11.4 19 11 23 11 23H5V18L6 17L8 0H33V3H38L41 4.5L46 10.4L53 14.3L52 21L53 21.5ZM45 11L40 5L38 4H32V1H9L7 17V18L6 19V22H10C10 22 11 18 16 18C21 18 22 22 22 22H37C37 22 37.6 18 43 18C50 18 49 25 49 25H51L52 24V22L51 21L51.8 14.8L45 11ZM31 14V13L32 6H38L39.4 7L43.5 12L43 14H31ZM39 8L37.7 7H33L32 13H42.2L42.3 12L39 8ZM0 0H6V1H0V0ZM5 6H0V5H5V6ZM4 11H0V10H4V11ZM3 16H0V15H3V16ZM11 25H6V24H11V25ZM16 20C18.2 20 20 21.8 20 24C20 26.2 18.2 28 16 28C13.8 28 12 26.2 12 24C12 21.8 13.8 20 16 20ZM16 27C17.7 27 19 25.7 19 24C19 22.3 17.7 21 16 21C14.3 21 13 22.3 13 24C13 25.7 14.3 27 16 27ZM38 25H21V24H38V25ZM43 20C45.2 20 47 21.8 47 24C47 26.2 45.2 28 43 28C40.8 28 39 26.2 39 24C39 21.8 40.8 20 43 20ZM43 27C44.7 27 46 25.7 46 24C46 22.3 44.7 21 43 21C41.3 21 40 22.3 40 24C40 25.7 41.3 27 43 27Z" fill="#969696"/>
</g>
<defs>
<clipPath id="clip0_114_106">
<rect width="53" height="28" fill="white"/>
</clipPath>
</defs>
</svg>
