<svg width="46" height="31" fill="none" xmlns="http://www.w3.org/2000/svg"><g clip-path="url(#a)" fill-rule="evenodd" clip-rule="evenodd" fill="#969696"><path d="M18 31V13h8.2c.4-2.3 1.8-5 5.8-5 4.1 0 5.4 2.7 5.9 5H46v18H18ZM32 9c-3.3 0-4.5 2.1-4.9 4h9.7c-.4-1.9-1.5-4-4.8-4Zm13 5h-7v1h1v1h-3v-1h1v-1H27v1h1v1h-3v-1h1v-1h-7v16h26V14Z"/><path d="M23 13V6h-6v1h1v1h-3V7h1.1V6H7.9v1H9v1H6V7h.9V6H1v24h19v1H0V5h7.1c.3-2.3 1.4-5 4.9-5 3.5 0 4.6 2.7 4.9 5H24v8h-1ZM12 1C9.3 1 8.3 3.1 8 5h8c-.3-1.9-1.3-4-4-4Z"/></g><defs><clipPath id="a"><path fill="#fff" d="M0 0h46v31H0z"/></clipPath></defs></svg>