<svg width="51" height="31" fill="none" xmlns="http://www.w3.org/2000/svg"><g clip-path="url(#a)" fill-rule="evenodd" clip-rule="evenodd" fill="#969696"><path d="M25 10V6s3 .3 3-2.6C28 2.1 26.9 1 25.5 1 23 1 23 4 23 4h-1s0-4 3.5-4S29 3.4 29 3.4C29 7 26 7 26 7v3h-1Zm9 18h-3v-7h3l1 2v4l-1 1Zm0-5-.5-1H32v5h2v-4Zm-8-2h1v6h2v-1h1v2h-4v-7Zm-5 0h4v7h-4v-7Zm1 6h2v-5h-2v5Zm-6-1h1v1h2v-2h-3v-4h4v2h-1v-1h-2v2h3v4h-4v-2Z"/><path d="M11 31V18h29v13H11Zm28-12H12v11h27V19Zm2 4v-1h2l1 1h-3ZM8 22h2v1H7l1-1Z"/><path d="M49.5 24h-2.8s-3.9-4.4-7.7-7c-3.6-2.4-9-4-9-4h-9s-5.4 1.6-9 4c-3.8 2.6-7.8 7-7.8 7H1.5C1 24 0 23 0 22.5v-1c0-.8.8-1.5 1.5-1.5H4s2.2-2.4 4-4c1.5-1.4 3.4-2.8 5-4 4-3 8-3 8-3h9s4 0 8 3c1.5 1.1 3.8 2.8 5 4l4 4h2.5c.7 0 1.5.7 1.5 1.5v1c0 .7-.8 1.5-1.5 1.5Zm.5-3h-3.3s-2.1-2.1-3.7-3.8c-1.2-1.2-4.1-3.1-5.5-4.2-3.3-2.6-7.5-3-7.5-3h-9s-4.3.4-7.5 3c-1.4 1.1-4.1 3.1-5.5 4.2A57.512 57.512 0 0 0 4.2 21H1v2h3s4.3-4.5 8-7c3.8-2.5 9-4 9-4h9s5.6 1.7 9 4c4.1 2.7 8 7 8 7h3v-2Z"/></g><defs><clipPath id="a"><path fill="#fff" d="M0 0h51v31H0z"/></clipPath></defs></svg>