<svg width="30" height="30" fill="none" xmlns="http://www.w3.org/2000/svg"><path d="M15 17.625A2.62 2.62 0 0 1 12.375 15 2.62 2.62 0 0 1 15 12.375 2.62 2.62 0 0 1 17.625 15c0 1.406-1.219 2.625-2.625 2.625Z" fill="#333"/><path fill-rule="evenodd" clip-rule="evenodd" d="M18.188 8.625h-6.375c-.75.094-1.126.188-1.407.281-.375.094-.656.281-.937.563-.223.222-.328.445-.455.714-.034.07-.069.145-.108.223-.014.044-.031.09-.049.138-.098.268-.232.634-.232 1.268v6.376c.094.75.188 1.125.281 1.406.094.375.281.656.563.937.222.223.445.328.714.455.07.034.145.069.223.108.044.014.09.031.138.049.268.098.634.232 1.268.232h6.376c.75-.094 1.125-.188 1.406-.281.375-.094.656-.282.937-.563.223-.222.328-.445.455-.714.034-.07.069-.145.108-.223.014-.044.031-.09.049-.139a3.3 3.3 0 0 0 .232-1.267v-6.375c-.094-.75-.188-1.126-.281-1.407-.094-.375-.282-.656-.563-.937-.222-.223-.445-.328-.714-.455-.07-.034-.145-.069-.223-.108a5.014 5.014 0 0 1-.139-.049 3.3 3.3 0 0 0-1.267-.232ZM15 10.969A4.001 4.001 0 0 0 10.969 15 4.001 4.001 0 0 0 15 19.031 4.001 4.001 0 0 0 19.031 15 4.001 4.001 0 0 0 15 10.969Zm5.063-.094a.937.937 0 1 1-1.875 0 .937.937 0 0 1 1.875 0Z" fill="#333"/><path fill-rule="evenodd" clip-rule="evenodd" d="M0 15C0 6.716 6.716 0 15 0c8.284 0 15 6.716 15 15 0 8.284-6.716 15-15 15-8.284 0-15-6.716-15-15Zm11.813-7.781h6.374c.844.093 1.407.187 1.875.375.563.281.938.468 1.407.937.468.469.75.938.937 1.406.188.47.375 1.032.375 1.876v6.374c-.093.844-.187 1.407-.375 1.875-.281.563-.468.938-.937 1.407-.469.468-.938.75-1.407.937a4.705 4.705 0 0 1-1.875.375h-6.375c-.843-.093-1.406-.187-1.874-.375-.563-.281-.938-.468-1.407-.937a4.093 4.093 0 0 1-.937-1.407 4.705 4.705 0 0 1-.375-1.875v-6.375c.093-.843.187-1.406.375-1.874.281-.563.468-.938.937-1.407a4.09 4.09 0 0 1 1.406-.937 4.705 4.705 0 0 1 1.876-.375Z" fill="#333"/></svg>